<svg width="1920" height="1080" viewBox="0 0 1920 1080" fill="none" xmlns="http://www.w3.org/2000/svg">
<rect width="1920" height="1080" fill="#4F8594"/>
<path opacity="0.2" d="M1205.06 394.696C1201.35 394.892 1197.76 396.049 1194.65 398.053C1191.53 400.058 1188.98 402.841 1187.27 406.128C1185.55 409.415 1184.72 413.092 1184.86 416.798C1185 420.503 1186.1 424.108 1188.06 427.258L1230.93 498.632C1187.3 539.96 1158.11 596.277 1152.06 659.38C1150.88 684.019 1176.87 684.005 1176.87 684.005H1638.49C1638.49 684.005 1665.22 683.999 1663.92 658.13C1657.61 595.474 1628.45 539.633 1585.05 498.57L1627.86 427.258C1629.84 424.068 1630.94 420.414 1631.05 416.663C1631.16 412.912 1630.28 409.198 1628.5 405.896C1626.72 402.593 1624.1 399.819 1620.9 397.852C1617.71 395.886 1614.05 394.797 1610.3 394.696C1606.47 394.599 1602.69 395.534 1599.34 397.403C1596 399.273 1593.22 402.008 1591.3 405.321L1551.36 471.758C1510.38 444.277 1461.19 428.008 1408.05 428.008C1354.87 428.008 1305.62 444.293 1264.62 471.82L1224.68 405.321C1222.71 401.911 1219.83 399.113 1216.37 397.238C1212.9 395.363 1208.99 394.483 1205.06 394.696ZM1279.99 556.006C1284.19 556.006 1288.36 556.834 1292.24 558.442C1296.12 560.05 1299.65 562.407 1302.62 565.379C1305.59 568.35 1307.95 571.878 1309.56 575.76C1311.16 579.643 1311.99 583.804 1311.99 588.006C1311.99 592.208 1311.16 596.369 1309.56 600.252C1307.95 604.134 1305.59 607.662 1302.62 610.633C1299.65 613.604 1296.12 615.962 1292.24 617.57C1288.36 619.178 1284.19 620.005 1279.99 620.005C1275.79 620.005 1271.63 619.178 1267.75 617.57C1263.86 615.962 1260.34 613.604 1257.36 610.633C1254.39 607.662 1252.04 604.134 1250.43 600.252C1248.82 596.369 1247.99 592.208 1247.99 588.006C1247.99 583.804 1248.82 579.643 1250.43 575.76C1252.04 571.878 1254.39 568.35 1257.36 565.379C1260.34 562.407 1263.86 560.05 1267.75 558.442C1271.63 556.834 1275.79 556.006 1279.99 556.006ZM1535.99 556.006C1540.19 556.006 1544.35 556.834 1548.23 558.442C1552.12 560.05 1555.64 562.407 1558.62 565.379C1561.59 568.35 1563.94 571.878 1565.55 575.76C1567.16 579.643 1567.99 583.804 1567.99 588.006C1567.99 592.208 1567.16 596.369 1565.55 600.252C1563.94 604.134 1561.59 607.662 1558.62 610.633C1555.64 613.604 1552.12 615.962 1548.23 617.57C1544.35 619.178 1540.19 620.005 1535.99 620.005C1531.79 620.005 1527.62 619.178 1523.74 617.57C1519.86 615.962 1516.33 613.604 1513.36 610.633C1510.39 607.662 1508.03 604.134 1506.42 600.252C1504.82 596.369 1503.99 592.208 1503.99 588.006C1503.99 583.804 1504.82 579.643 1506.42 575.76C1508.03 571.878 1510.39 568.35 1513.36 565.379C1516.33 562.407 1519.86 560.05 1523.74 558.442C1527.62 556.834 1531.79 556.006 1535.99 556.006Z" fill="black" fill-opacity="0.6"/>
<path fill-rule="evenodd" clip-rule="evenodd" d="M1203.64 395.708C1206.16 394.193 1209.44 395.012 1210.95 397.538L1262.15 482.87C1263.67 485.395 1262.85 488.671 1260.32 490.187C1257.8 491.702 1254.52 490.883 1253.01 488.357L1201.81 403.025C1200.29 400.5 1201.11 397.224 1203.64 395.708Z" fill="#30DD81"/>
<path fill-rule="evenodd" clip-rule="evenodd" d="M1612.32 395.708C1614.84 397.224 1615.66 400.5 1614.15 403.025L1562.95 488.357C1561.43 490.883 1558.16 491.702 1555.63 490.187C1553.1 488.671 1552.29 485.395 1553.8 482.87L1605 397.538C1606.52 395.012 1609.79 394.193 1612.32 395.708Z" fill="#30DD81"/>
<path d="M1408.05 412.009C1274.36 412.009 1164.51 513.557 1152.06 643.38C1150.88 668.019 1176.87 668.005 1176.87 668.005H1638.49C1638.49 668.005 1665.22 668 1663.92 642.13C1650.89 512.897 1541.32 412.009 1408.05 412.009Z" fill="#30DD81"/>
<path opacity="0.2" d="M1280 548.006C1275.79 548.006 1271.63 548.834 1267.75 550.442C1263.87 552.05 1260.34 554.407 1257.37 557.379C1254.4 560.35 1252.04 563.878 1250.43 567.76C1248.82 571.643 1248 575.804 1248 580.006C1248 584.208 1248.82 588.369 1250.43 592.252C1252.04 596.134 1254.4 599.662 1257.37 602.633C1260.34 605.604 1263.87 607.962 1267.75 609.57C1271.63 611.178 1275.79 612.005 1280 612.005C1284.2 612.005 1288.36 611.178 1292.24 609.57C1296.12 607.962 1299.65 605.604 1302.62 602.633C1305.59 599.662 1307.95 596.134 1309.56 592.252C1311.17 588.369 1311.99 584.208 1311.99 580.006C1311.99 575.804 1311.17 571.643 1309.56 567.76C1307.95 563.878 1305.59 560.35 1302.62 557.379C1299.65 554.407 1296.12 552.05 1292.24 550.442C1288.36 548.834 1284.2 548.006 1280 548.006ZM1535.99 548.006C1531.79 548.006 1527.63 548.834 1523.75 550.442C1519.86 552.05 1516.34 554.407 1513.36 557.379C1510.39 560.35 1508.04 563.878 1506.43 567.76C1504.82 571.643 1503.99 575.804 1503.99 580.006C1503.99 584.208 1504.82 588.369 1506.43 592.252C1508.04 596.134 1510.39 599.662 1513.36 602.633C1516.34 605.604 1519.86 607.962 1523.75 609.57C1527.63 611.178 1531.79 612.005 1535.99 612.005C1540.19 612.005 1544.36 611.178 1548.24 609.57C1552.12 607.962 1555.65 605.604 1558.62 602.633C1561.59 599.662 1563.95 596.134 1565.56 592.252C1567.16 588.369 1567.99 584.208 1567.99 580.006C1567.99 575.804 1567.16 571.643 1565.56 567.76C1563.95 563.878 1561.59 560.35 1558.62 557.379C1555.65 554.407 1552.12 552.05 1548.24 550.442C1544.36 548.834 1540.19 548.006 1535.99 548.006Z" fill="black" fill-opacity="0.6"/>
<path d="M1279.99 540.007C1284.19 540.007 1288.36 540.835 1292.24 542.443C1296.12 544.051 1299.65 546.408 1302.62 549.379C1305.59 552.351 1307.95 555.878 1309.56 559.761C1311.16 563.643 1311.99 567.804 1311.99 572.006C1311.99 576.209 1311.16 580.37 1309.56 584.252C1307.95 588.135 1305.59 591.662 1302.62 594.634C1299.65 597.605 1296.12 599.962 1292.24 601.57C1288.36 603.178 1284.19 604.006 1279.99 604.006C1275.79 604.006 1271.63 603.178 1267.75 601.57C1263.86 599.962 1260.34 597.605 1257.36 594.634C1254.39 591.662 1252.04 588.135 1250.43 584.252C1248.82 580.37 1247.99 576.209 1247.99 572.006C1247.99 567.804 1248.82 563.643 1250.43 559.761C1252.04 555.878 1254.39 552.351 1257.36 549.379C1260.34 546.408 1263.86 544.051 1267.75 542.443C1271.63 540.835 1275.79 540.007 1279.99 540.007Z" fill="white"/>
<path d="M1535.99 540.007C1540.19 540.007 1544.35 540.835 1548.23 542.443C1552.12 544.051 1555.64 546.408 1558.62 549.379C1561.59 552.351 1563.94 555.878 1565.55 559.761C1567.16 563.643 1567.99 567.804 1567.99 572.006C1567.99 576.209 1567.16 580.37 1565.55 584.252C1563.94 588.135 1561.59 591.662 1558.62 594.634C1555.64 597.605 1552.12 599.962 1548.23 601.57C1544.35 603.178 1540.19 604.006 1535.99 604.006C1531.79 604.006 1527.62 603.178 1523.74 601.57C1519.86 599.962 1516.33 597.605 1513.36 594.634C1510.39 591.662 1508.03 588.135 1506.42 584.252C1504.82 580.37 1503.99 576.209 1503.99 572.006C1503.99 567.804 1504.82 563.643 1506.42 559.761C1508.03 555.878 1510.39 552.351 1513.36 549.379C1516.33 546.408 1519.86 544.051 1523.74 542.443C1527.62 540.835 1531.79 540.007 1535.99 540.007Z" fill="white"/>
</svg>
