<svg width="1920" height="1080" viewBox="0 0 1920 1080" fill="none" xmlns="http://www.w3.org/2000/svg">
<g clip-path="url(#clip0_1_45)">
<rect width="1920" height="1080" fill="#295F6E"/>
<path opacity="0.2" d="M1205.06 791.696C1201.35 791.892 1197.76 793.049 1194.65 795.053C1191.53 797.058 1188.98 799.841 1187.27 803.128C1185.55 806.415 1184.72 810.092 1184.86 813.798C1185 817.503 1186.1 821.108 1188.06 824.258L1230.93 895.632C1187.3 936.96 1158.11 993.277 1152.06 1056.38C1150.88 1081.02 1176.87 1081 1176.87 1081H1638.49C1638.49 1081 1665.22 1081 1663.92 1055.13C1657.61 992.475 1628.45 936.633 1585.05 895.57L1627.86 824.258C1629.84 821.068 1630.94 817.414 1631.05 813.663C1631.16 809.912 1630.28 806.198 1628.5 802.896C1626.72 799.593 1624.1 796.819 1620.9 794.852C1617.71 792.886 1614.05 791.797 1610.3 791.696C1606.47 791.599 1602.69 792.534 1599.34 794.403C1596 796.273 1593.22 799.008 1591.3 802.321L1551.36 868.758C1510.38 841.277 1461.19 825.008 1408.05 825.008C1354.87 825.008 1305.62 841.293 1264.62 868.82L1224.68 802.321C1222.71 798.911 1219.83 796.114 1216.37 794.238C1212.9 792.363 1208.99 791.483 1205.06 791.696ZM1279.99 953.007C1284.19 953.007 1288.36 953.834 1292.24 955.442C1296.12 957.05 1299.65 959.408 1302.62 962.379C1305.59 965.35 1307.95 968.878 1309.56 972.76C1311.16 976.643 1311.99 980.804 1311.99 985.006C1311.99 989.208 1311.16 993.369 1309.56 997.252C1307.95 1001.13 1305.59 1004.66 1302.62 1007.63C1299.65 1010.6 1296.12 1012.96 1292.24 1014.57C1288.36 1016.18 1284.19 1017.01 1279.99 1017.01C1275.79 1017.01 1271.63 1016.18 1267.75 1014.57C1263.86 1012.96 1260.34 1010.6 1257.36 1007.63C1254.39 1004.66 1252.04 1001.13 1250.43 997.252C1248.82 993.369 1247.99 989.208 1247.99 985.006C1247.99 980.804 1248.82 976.643 1250.43 972.76C1252.04 968.878 1254.39 965.35 1257.36 962.379C1260.34 959.408 1263.86 957.05 1267.75 955.442C1271.63 953.834 1275.79 953.007 1279.99 953.007ZM1535.99 953.007C1540.19 953.007 1544.35 953.834 1548.23 955.442C1552.12 957.05 1555.64 959.408 1558.62 962.379C1561.59 965.35 1563.94 968.878 1565.55 972.76C1567.16 976.643 1567.99 980.804 1567.99 985.006C1567.99 989.208 1567.16 993.369 1565.55 997.252C1563.94 1001.13 1561.59 1004.66 1558.62 1007.63C1555.64 1010.6 1552.12 1012.96 1548.23 1014.57C1544.35 1016.18 1540.19 1017.01 1535.99 1017.01C1531.79 1017.01 1527.62 1016.18 1523.74 1014.57C1519.86 1012.96 1516.33 1010.6 1513.36 1007.63C1510.39 1004.66 1508.03 1001.13 1506.42 997.252C1504.82 993.369 1503.99 989.208 1503.99 985.006C1503.99 980.804 1504.82 976.643 1506.42 972.76C1508.03 968.878 1510.39 965.35 1513.36 962.379C1516.33 959.408 1519.86 957.05 1523.74 955.442C1527.62 953.834 1531.79 953.007 1535.99 953.007Z" fill="black" fill-opacity="0.6"/>
<path fill-rule="evenodd" clip-rule="evenodd" d="M1203.64 792.708C1206.16 791.193 1209.44 792.012 1210.95 794.538L1262.15 879.87C1263.67 882.395 1262.85 885.671 1260.32 887.187C1257.8 888.702 1254.52 887.883 1253.01 885.357L1201.81 800.025C1200.29 797.5 1201.11 794.224 1203.64 792.708Z" fill="#30DD81"/>
<path fill-rule="evenodd" clip-rule="evenodd" d="M1612.32 792.708C1614.84 794.224 1615.66 797.5 1614.15 800.025L1562.95 885.357C1561.43 887.883 1558.16 888.702 1555.63 887.187C1553.1 885.671 1552.29 882.395 1553.8 879.87L1605 794.538C1606.52 792.012 1609.79 791.193 1612.32 792.708Z" fill="#30DD81"/>
<path d="M1408.05 809.009C1274.36 809.009 1164.51 910.557 1152.06 1040.38C1150.88 1065.02 1176.87 1065.01 1176.87 1065.01H1638.49C1638.49 1065.01 1665.22 1065 1663.92 1039.13C1650.89 909.897 1541.32 809.009 1408.05 809.009Z" fill="#30DD81"/>
<path opacity="0.2" d="M1280 945.006C1275.79 945.006 1271.63 945.834 1267.75 947.442C1263.87 949.05 1260.34 951.407 1257.37 954.379C1254.4 957.35 1252.04 960.878 1250.43 964.76C1248.82 968.643 1248 972.804 1248 977.006C1248 981.208 1248.82 985.369 1250.43 989.252C1252.04 993.134 1254.4 996.662 1257.37 999.633C1260.34 1002.6 1263.87 1004.96 1267.75 1006.57C1271.63 1008.18 1275.79 1009.01 1280 1009.01C1284.2 1009.01 1288.36 1008.18 1292.24 1006.57C1296.12 1004.96 1299.65 1002.6 1302.62 999.633C1305.59 996.662 1307.95 993.134 1309.56 989.252C1311.17 985.369 1311.99 981.208 1311.99 977.006C1311.99 972.804 1311.17 968.643 1309.56 964.76C1307.95 960.878 1305.59 957.35 1302.62 954.379C1299.65 951.407 1296.12 949.05 1292.24 947.442C1288.36 945.834 1284.2 945.006 1280 945.006ZM1535.99 945.006C1531.79 945.006 1527.63 945.834 1523.75 947.442C1519.86 949.05 1516.34 951.407 1513.36 954.379C1510.39 957.35 1508.04 960.878 1506.43 964.76C1504.82 968.643 1503.99 972.804 1503.99 977.006C1503.99 981.208 1504.82 985.369 1506.43 989.252C1508.04 993.134 1510.39 996.662 1513.36 999.633C1516.34 1002.6 1519.86 1004.96 1523.75 1006.57C1527.63 1008.18 1531.79 1009.01 1535.99 1009.01C1540.19 1009.01 1544.36 1008.18 1548.24 1006.57C1552.12 1004.96 1555.65 1002.6 1558.62 999.633C1561.59 996.662 1563.95 993.134 1565.56 989.252C1567.16 985.369 1567.99 981.208 1567.99 977.006C1567.99 972.804 1567.16 968.643 1565.56 964.76C1563.95 960.878 1561.59 957.35 1558.62 954.379C1555.65 951.407 1552.12 949.05 1548.24 947.442C1544.36 945.834 1540.19 945.006 1535.99 945.006Z" fill="black" fill-opacity="0.6"/>
<path d="M1279.99 937.007C1284.19 937.007 1288.36 937.835 1292.24 939.443C1296.12 941.051 1299.65 943.408 1302.62 946.379C1305.59 949.351 1307.95 952.878 1309.56 956.761C1311.16 960.643 1311.99 964.804 1311.99 969.006C1311.99 973.209 1311.16 977.37 1309.56 981.252C1307.95 985.135 1305.59 988.662 1302.62 991.634C1299.65 994.605 1296.12 996.962 1292.24 998.57C1288.36 1000.18 1284.19 1001.01 1279.99 1001.01C1275.79 1001.01 1271.63 1000.18 1267.75 998.57C1263.86 996.962 1260.34 994.605 1257.36 991.634C1254.39 988.662 1252.04 985.135 1250.43 981.252C1248.82 977.37 1247.99 973.209 1247.99 969.006C1247.99 964.804 1248.82 960.643 1250.43 956.761C1252.04 952.878 1254.39 949.351 1257.36 946.379C1260.34 943.408 1263.86 941.051 1267.75 939.443C1271.63 937.835 1275.79 937.007 1279.99 937.007Z" fill="white"/>
<path d="M1535.99 937.007C1540.19 937.007 1544.35 937.835 1548.23 939.443C1552.12 941.051 1555.64 943.408 1558.62 946.379C1561.59 949.351 1563.94 952.878 1565.55 956.761C1567.16 960.643 1567.99 964.804 1567.99 969.006C1567.99 973.209 1567.16 977.37 1565.55 981.252C1563.94 985.135 1561.59 988.662 1558.62 991.634C1555.64 994.605 1552.12 996.962 1548.23 998.57C1544.35 1000.18 1540.19 1001.01 1535.99 1001.01C1531.79 1001.01 1527.62 1000.18 1523.74 998.57C1519.86 996.962 1516.33 994.605 1513.36 991.634C1510.39 988.662 1508.03 985.135 1506.42 981.252C1504.82 977.37 1503.99 973.209 1503.99 969.006C1503.99 964.804 1504.82 960.643 1506.42 956.761C1508.03 952.878 1510.39 949.351 1513.36 946.379C1516.33 943.408 1519.86 941.051 1523.74 939.443C1527.62 937.835 1531.79 937.007 1535.99 937.007Z" fill="white"/>
</g>
<defs>
<clipPath id="clip0_1_45">
<rect width="1920" height="1080" fill="white"/>
</clipPath>
</defs>
</svg>
