<svg width="1920" height="1080" viewBox="0 0 1920 1080" fill="none" xmlns="http://www.w3.org/2000/svg">
<g clip-path="url(#clip0_1_99)">
<rect width="1920" height="1080" fill="#4F8594"/>
<path opacity="0.2" d="M1205.06 831.696C1201.35 831.892 1197.76 833.049 1194.65 835.053C1191.53 837.058 1188.98 839.841 1187.27 843.128C1185.55 846.415 1184.72 850.092 1184.86 853.798C1185 857.503 1186.1 861.108 1188.06 864.258L1230.93 935.632C1187.3 976.96 1158.11 1033.28 1152.06 1096.38C1150.88 1121.02 1176.87 1121 1176.87 1121H1638.49C1638.49 1121 1665.22 1121 1663.92 1095.13C1657.61 1032.47 1628.45 976.633 1585.05 935.57L1627.86 864.258C1629.84 861.068 1630.94 857.414 1631.05 853.663C1631.16 849.912 1630.28 846.198 1628.5 842.896C1626.72 839.593 1624.1 836.819 1620.9 834.852C1617.71 832.886 1614.05 831.797 1610.3 831.696C1606.47 831.599 1602.69 832.534 1599.34 834.403C1596 836.273 1593.22 839.008 1591.3 842.321L1551.36 908.758C1510.38 881.277 1461.19 865.008 1408.05 865.008C1354.87 865.008 1305.62 881.293 1264.62 908.82L1224.68 842.321C1222.71 838.911 1219.83 836.113 1216.37 834.238C1212.9 832.363 1208.99 831.483 1205.06 831.696ZM1279.99 993.006C1284.19 993.006 1288.36 993.834 1292.24 995.442C1296.12 997.05 1299.65 999.407 1302.62 1002.38C1305.59 1005.35 1307.95 1008.88 1309.56 1012.76C1311.16 1016.64 1311.99 1020.8 1311.99 1025.01C1311.99 1029.21 1311.16 1033.37 1309.56 1037.25C1307.95 1041.13 1305.59 1044.66 1302.62 1047.63C1299.65 1050.6 1296.12 1052.96 1292.24 1054.57C1288.36 1056.18 1284.19 1057.01 1279.99 1057.01C1275.79 1057.01 1271.63 1056.18 1267.75 1054.57C1263.86 1052.96 1260.34 1050.6 1257.36 1047.63C1254.39 1044.66 1252.04 1041.13 1250.43 1037.25C1248.82 1033.37 1247.99 1029.21 1247.99 1025.01C1247.99 1020.8 1248.82 1016.64 1250.43 1012.76C1252.04 1008.88 1254.39 1005.35 1257.36 1002.38C1260.34 999.407 1263.86 997.05 1267.75 995.442C1271.63 993.834 1275.79 993.006 1279.99 993.006ZM1535.99 993.006C1540.19 993.006 1544.35 993.834 1548.23 995.442C1552.12 997.05 1555.64 999.407 1558.62 1002.38C1561.59 1005.35 1563.94 1008.88 1565.55 1012.76C1567.16 1016.64 1567.99 1020.8 1567.99 1025.01C1567.99 1029.21 1567.16 1033.37 1565.55 1037.25C1563.94 1041.13 1561.59 1044.66 1558.62 1047.63C1555.64 1050.6 1552.12 1052.96 1548.23 1054.57C1544.35 1056.18 1540.19 1057.01 1535.99 1057.01C1531.79 1057.01 1527.62 1056.18 1523.74 1054.57C1519.86 1052.96 1516.33 1050.6 1513.36 1047.63C1510.39 1044.66 1508.03 1041.13 1506.42 1037.25C1504.82 1033.37 1503.99 1029.21 1503.99 1025.01C1503.99 1020.8 1504.82 1016.64 1506.42 1012.76C1508.03 1008.88 1510.39 1005.35 1513.36 1002.38C1516.33 999.407 1519.86 997.05 1523.74 995.442C1527.62 993.834 1531.79 993.006 1535.99 993.006Z" fill="black" fill-opacity="0.6"/>
<path fill-rule="evenodd" clip-rule="evenodd" d="M1203.64 832.708C1206.16 831.193 1209.44 832.012 1210.95 834.538L1262.15 919.87C1263.67 922.395 1262.85 925.671 1260.32 927.187C1257.8 928.702 1254.52 927.883 1253.01 925.357L1201.81 840.025C1200.29 837.5 1201.11 834.224 1203.64 832.708Z" fill="#30DD81"/>
<path fill-rule="evenodd" clip-rule="evenodd" d="M1612.32 832.708C1614.84 834.224 1615.66 837.5 1614.15 840.025L1562.95 925.357C1561.43 927.883 1558.16 928.702 1555.63 927.187C1553.1 925.671 1552.29 922.395 1553.8 919.87L1605 834.538C1606.52 832.012 1609.79 831.193 1612.32 832.708Z" fill="#30DD81"/>
<path d="M1408.05 849.009C1274.36 849.009 1164.51 950.557 1152.06 1080.38C1150.88 1105.02 1176.87 1105.01 1176.87 1105.01H1638.49C1638.49 1105.01 1665.22 1105 1663.92 1079.13C1650.89 949.897 1541.32 849.009 1408.05 849.009Z" fill="#30DD81"/>
<path opacity="0.2" d="M1280 985.006C1275.79 985.006 1271.63 985.834 1267.75 987.442C1263.87 989.05 1260.34 991.407 1257.37 994.379C1254.4 997.35 1252.04 1000.88 1250.43 1004.76C1248.82 1008.64 1248 1012.8 1248 1017.01C1248 1021.21 1248.82 1025.37 1250.43 1029.25C1252.04 1033.13 1254.4 1036.66 1257.37 1039.63C1260.34 1042.6 1263.87 1044.96 1267.75 1046.57C1271.63 1048.18 1275.79 1049.01 1280 1049.01C1284.2 1049.01 1288.36 1048.18 1292.24 1046.57C1296.12 1044.96 1299.65 1042.6 1302.62 1039.63C1305.59 1036.66 1307.95 1033.13 1309.56 1029.25C1311.17 1025.37 1311.99 1021.21 1311.99 1017.01C1311.99 1012.8 1311.17 1008.64 1309.56 1004.76C1307.95 1000.88 1305.59 997.35 1302.62 994.379C1299.65 991.407 1296.12 989.05 1292.24 987.442C1288.36 985.834 1284.2 985.006 1280 985.006ZM1535.99 985.006C1531.79 985.006 1527.63 985.834 1523.75 987.442C1519.86 989.05 1516.34 991.407 1513.36 994.379C1510.39 997.35 1508.04 1000.88 1506.43 1004.76C1504.82 1008.64 1503.99 1012.8 1503.99 1017.01C1503.99 1021.21 1504.82 1025.37 1506.43 1029.25C1508.04 1033.13 1510.39 1036.66 1513.36 1039.63C1516.34 1042.6 1519.86 1044.96 1523.75 1046.57C1527.63 1048.18 1531.79 1049.01 1535.99 1049.01C1540.19 1049.01 1544.36 1048.18 1548.24 1046.57C1552.12 1044.96 1555.65 1042.6 1558.62 1039.63C1561.59 1036.66 1563.95 1033.13 1565.56 1029.25C1567.16 1025.37 1567.99 1021.21 1567.99 1017.01C1567.99 1012.8 1567.16 1008.64 1565.56 1004.76C1563.95 1000.88 1561.59 997.35 1558.62 994.379C1555.65 991.407 1552.12 989.05 1548.24 987.442C1544.36 985.834 1540.19 985.006 1535.99 985.006Z" fill="black" fill-opacity="0.6"/>
<path d="M1279.99 977.007C1284.19 977.007 1288.36 977.835 1292.24 979.443C1296.12 981.051 1299.65 983.408 1302.62 986.379C1305.59 989.351 1307.95 992.878 1309.56 996.761C1311.16 1000.64 1311.99 1004.8 1311.99 1009.01C1311.99 1013.21 1311.16 1017.37 1309.56 1021.25C1307.95 1025.13 1305.59 1028.66 1302.62 1031.63C1299.65 1034.6 1296.12 1036.96 1292.24 1038.57C1288.36 1040.18 1284.19 1041.01 1279.99 1041.01C1275.79 1041.01 1271.63 1040.18 1267.75 1038.57C1263.86 1036.96 1260.34 1034.6 1257.36 1031.63C1254.39 1028.66 1252.04 1025.13 1250.43 1021.25C1248.82 1017.37 1247.99 1013.21 1247.99 1009.01C1247.99 1004.8 1248.82 1000.64 1250.43 996.761C1252.04 992.878 1254.39 989.351 1257.36 986.379C1260.34 983.408 1263.86 981.051 1267.75 979.443C1271.63 977.835 1275.79 977.007 1279.99 977.007Z" fill="white"/>
<path d="M1535.99 977.007C1540.19 977.007 1544.35 977.835 1548.23 979.443C1552.12 981.051 1555.64 983.408 1558.62 986.379C1561.59 989.351 1563.94 992.878 1565.55 996.761C1567.16 1000.64 1567.99 1004.8 1567.99 1009.01C1567.99 1013.21 1567.16 1017.37 1565.55 1021.25C1563.94 1025.13 1561.59 1028.66 1558.62 1031.63C1555.64 1034.6 1552.12 1036.96 1548.23 1038.57C1544.35 1040.18 1540.19 1041.01 1535.99 1041.01C1531.79 1041.01 1527.62 1040.18 1523.74 1038.57C1519.86 1036.96 1516.33 1034.6 1513.36 1031.63C1510.39 1028.66 1508.03 1025.13 1506.42 1021.25C1504.82 1017.37 1503.99 1013.21 1503.99 1009.01C1503.99 1004.8 1504.82 1000.64 1506.42 996.761C1508.03 992.878 1510.39 989.351 1513.36 986.379C1516.33 983.408 1519.86 981.051 1523.74 979.443C1527.62 977.835 1531.79 977.007 1535.99 977.007Z" fill="white"/>
</g>
<defs>
<clipPath id="clip0_1_99">
<rect width="1920" height="1080" fill="white"/>
</clipPath>
</defs>
</svg>
